<svg version="1.2" xmlns="http://www.w3.org/2000/svg" viewBox="0 0 512 512" width="512" height="512">
	<title>html5-white-svg</title>
	<style>
		.s0 { fill: #ffffff } 
	</style>
	<g id="Carpeta 1">
		<path id="Layer" fill-rule="evenodd" class="s0" d="m117.9 208.2h48.5q21.3 0.1 30.9 12.3 9.6 12.1 6.3 33.1-1.2 9.6-5.6 18.8-4.1 9.2-11.5 16.7-9.1 9.4-19.4 11.9-10.3 2.5-21.4 2.5h-21.7l-6.8 34.4h-25.2zm21 20.8q0.1 0 0.1 0l0.1-0.2zm-10.7 54.1q1.1 0.2 2.2 0.2 1.2 0 2.5 0 17.4 0.2 29-3.4 11.5-3.8 15.5-26.4 3.3-19-6.5-21.9-9.6-2.9-24.1-2.7-2.1 0.1-4.1 0.1-1.8 0-3.7 0z"/>
		<path id="Layer" class="s0" d="m232.3 173.6h25l-7.1 34.6h22.5q18.4 0.3 27.5 7.6 9.2 7.2 5.4 27.5l-12.1 60.2h-25.4l11.6-57.5q1.8-9.1-1.1-12.9-2.9-3.8-12.5-3.8l-20-0.1-14.9 74.3h-25z"/>
		<path id="Layer" fill-rule="evenodd" class="s0" d="m332.4 208.2h48.5q21.3 0.1 30.9 12.3 9.6 12.1 6.4 33.1-1.3 9.6-5.6 18.8-4.2 9.2-11.6 16.7-9.1 9.4-19.4 11.9-10.3 2.5-21.3 2.5h-21.7l-6.9 34.4h-25.2zm21 20.8q0.1 0 0.2 0v-0.2zm-10.7 54.1q1.1 0.2 2.2 0.2 1.3 0 2.5 0 17.4 0.2 29-3.4 11.6-3.8 15.5-26.4 3.3-19-6.5-21.9-9.6-2.9-24-2.7-2.2 0.1-4.2 0.1-1.7 0-3.7 0z"/>
	</g>
</svg>