<svg xmlns="http://www.w3.org/2000/svg" xmlns:xlink="http://www.w3.org/1999/xlink" width="1000" zoomAndPan="magnify" viewBox="0 0 750 149.999998" height="200" preserveAspectRatio="xMidYMid meet" version="1.0"><defs><g/></defs><g fill="#ffffff" fill-opacity="1"><g transform="translate(41.210934, 101.749946)"><g><path d="M 71.796875 -34.40625 C 73.992188 -34.40625 75.578125 -35.132812 76.546875 -36.59375 C 77.515625 -38.0625 78 -40.597656 78 -44.203125 C 78 -52.003906 75.082031 -58.40625 69.25 -63.40625 C 63.414062 -68.40625 56.097656 -70.90625 47.296875 -70.90625 C 38.828125 -70.90625 31.644531 -68.019531 25.75 -62.25 C 19.851562 -56.476562 16.90625 -49.492188 16.90625 -41.296875 C 16.90625 -33.234375 19.867188 -26.453125 25.796875 -20.953125 C 31.734375 -15.453125 38.898438 -12.703125 47.296875 -12.703125 C 51.234375 -12.703125 54.75 -13.265625 57.84375 -14.390625 C 60.945312 -15.523438 63.066406 -16.660156 64.203125 -17.796875 L 66 -19.5 L 77.59375 -11.796875 C 77.332031 -11.460938 76.96875 -10.992188 76.5 -10.390625 C 76.03125 -9.796875 74.910156 -8.734375 73.140625 -7.203125 C 71.378906 -5.671875 69.429688 -4.320312 67.296875 -3.15625 C 65.160156 -1.988281 62.289062 -0.921875 58.6875 0.046875 C 55.09375 1.015625 51.296875 1.5 47.296875 1.5 C 39.160156 1.5 31.675781 -0.28125 24.84375 -3.84375 C 18.007812 -7.414062 12.539062 -12.484375 8.4375 -19.046875 C 4.34375 -25.617188 2.296875 -33.035156 2.296875 -41.296875 C 2.296875 -49.566406 4.34375 -56.984375 8.4375 -63.546875 C 12.539062 -70.117188 18.007812 -75.171875 24.84375 -78.703125 C 31.675781 -82.234375 39.160156 -84 47.296875 -84 C 59.234375 -84 69.316406 -80.265625 77.546875 -72.796875 C 85.785156 -65.328125 89.90625 -55.796875 89.90625 -44.203125 C 89.90625 -36.929688 87.90625 -31.460938 83.90625 -27.796875 C 79.90625 -24.128906 75.132812 -22.296875 69.59375 -22.296875 C 63.925781 -22.296875 59.296875 -23.832031 55.703125 -26.90625 L 54.796875 -25.59375 C 51.535156 -22 47.335938 -20.203125 42.203125 -20.203125 C 36.734375 -20.203125 32.210938 -22.132812 28.640625 -26 C 25.078125 -29.863281 23.296875 -34.628906 23.296875 -40.296875 C 23.296875 -46.035156 25.078125 -50.851562 28.640625 -54.75 C 32.210938 -58.644531 36.734375 -60.59375 42.203125 -60.59375 C 47.265625 -60.59375 51.460938 -58.992188 54.796875 -55.796875 L 54.796875 -59.5 L 66.703125 -59.5 L 66.703125 -38.59375 C 66.703125 -38.257812 66.765625 -37.859375 66.890625 -37.390625 C 67.023438 -36.929688 67.523438 -36.316406 68.390625 -35.546875 C 69.265625 -34.785156 70.398438 -34.40625 71.796875 -34.40625 Z M 41.140625 -46.34375 C 39.578125 -44.78125 38.796875 -42.832031 38.796875 -40.5 C 38.796875 -38.164062 39.546875 -36.25 41.046875 -34.75 C 42.546875 -33.25 44.5 -32.5 46.90625 -32.5 C 49.164062 -32.5 51.046875 -33.265625 52.546875 -34.796875 C 54.046875 -36.328125 54.796875 -38.226562 54.796875 -40.5 C 54.796875 -42.832031 54.03125 -44.78125 52.5 -46.34375 C 50.96875 -47.914062 49.101562 -48.703125 46.90625 -48.703125 C 44.632812 -48.703125 42.710938 -47.914062 41.140625 -46.34375 Z M 41.140625 -46.34375 "/></g></g></g><g fill="#ffffff" fill-opacity="1"><g transform="translate(133.307383, 101.749946)"><g><path d="M 31.796875 0 L -2.796875 -82.5 L 18.40625 -82.5 L 39.203125 -28.296875 L 60 -82.5 L 81.203125 -82.5 L 46.59375 0 Z M 31.796875 0 "/></g></g></g><g fill="#ffffff" fill-opacity="1"><g transform="translate(211.704363, 101.749946)"><g><path d="M 7.6875 -79.890625 C 9.757812 -81.960938 12.226562 -83 15.09375 -83 C 17.96875 -83 20.4375 -81.960938 22.5 -79.890625 C 24.5625 -77.828125 25.59375 -75.363281 25.59375 -72.5 C 25.59375 -69.632812 24.5625 -67.164062 22.5 -65.09375 C 20.4375 -63.03125 17.96875 -62 15.09375 -62 C 12.226562 -62 9.757812 -63.03125 7.6875 -65.09375 C 5.625 -67.164062 4.59375 -69.632812 4.59375 -72.5 C 4.59375 -75.363281 5.625 -77.828125 7.6875 -79.890625 Z M 6 -51.296875 L 6 0 L 23.703125 0 L 23.703125 -51.296875 Z M 6 -51.296875 "/></g></g></g><g fill="#ffffff" fill-opacity="1"><g transform="translate(241.903214, 101.749946)"><g><path d="M 33.296875 -38.296875 C 29.960938 -38.296875 27.09375 -37.0625 24.6875 -34.59375 C 22.289062 -32.132812 21.09375 -29.171875 21.09375 -25.703125 C 21.09375 -22.171875 22.289062 -19.171875 24.6875 -16.703125 C 27.09375 -14.234375 29.960938 -13 33.296875 -13 C 34.898438 -13 36.414062 -13.195312 37.84375 -13.59375 C 39.28125 -14 40.332031 -14.398438 41 -14.796875 L 41.90625 -15.40625 L 47.90625 -3.09375 C 47.4375 -2.757812 46.785156 -2.34375 45.953125 -1.84375 C 45.117188 -1.34375 43.21875 -0.660156 40.25 0.203125 C 37.28125 1.066406 34.097656 1.5 30.703125 1.5 C 23.171875 1.5 16.550781 -1.148438 10.84375 -6.453125 C 5.144531 -11.753906 2.296875 -18.101562 2.296875 -25.5 C 2.296875 -32.96875 5.144531 -39.382812 10.84375 -44.75 C 16.550781 -50.113281 23.171875 -52.796875 30.703125 -52.796875 C 34.097656 -52.796875 37.226562 -52.394531 40.09375 -51.59375 C 42.96875 -50.800781 45.003906 -50.003906 46.203125 -49.203125 L 47.90625 -48 L 41.90625 -35.90625 C 39.695312 -37.5 36.828125 -38.296875 33.296875 -38.296875 Z M 33.296875 -38.296875 "/></g></g></g><g fill="#ffffff" fill-opacity="1"><g transform="translate(291.001317, 101.749946)"><g><path d="M 64.59375 -51.296875 L 40.203125 -26.796875 L 67 0 L 44.203125 0 L 23.703125 -20.5 L 23.703125 0 L 6 0 L 6 -86 L 23.703125 -86 L 23.703125 -33.40625 L 41.59375 -51.296875 Z M 64.59375 -51.296875 "/></g></g></g><g fill="#ffffff" fill-opacity="1"><g transform="translate(355.59884, 101.749946)"><g><path d="M 6 0 L 6 -51.296875 L 23.703125 -51.296875 L 23.703125 -45.90625 L 23.90625 -45.90625 C 28.5 -50.5 33.394531 -52.796875 38.59375 -52.796875 C 42.332031 -52.796875 45.832031 -52.03125 49.09375 -50.5 C 52.363281 -48.96875 54.832031 -46.601562 56.5 -43.40625 C 61.695312 -49.664062 67.363281 -52.796875 73.5 -52.796875 C 78.96875 -52.796875 83.664062 -51.257812 87.59375 -48.1875 C 91.53125 -45.125 93.5 -40.328125 93.5 -33.796875 L 93.5 0 L 75.796875 0 L 75.796875 -29 C 75.796875 -31.726562 75.046875 -34.007812 73.546875 -35.84375 C 72.046875 -37.675781 69.796875 -38.59375 66.796875 -38.59375 C 64.203125 -38.59375 62.21875 -37.8125 60.84375 -36.25 C 59.476562 -34.6875 58.726562 -32.800781 58.59375 -30.59375 L 58.59375 0 L 40.90625 0 L 40.90625 -29 C 40.90625 -31.726562 40.15625 -34.007812 38.65625 -35.84375 C 37.15625 -37.675781 34.90625 -38.59375 31.90625 -38.59375 C 29.164062 -38.59375 27.113281 -37.742188 25.75 -36.046875 C 24.382812 -34.347656 23.703125 -32.332031 23.703125 -30 L 23.703125 0 Z M 6 0 "/></g></g></g><g fill="#ffffff" fill-opacity="1"><g transform="translate(454.095065, 101.749946)"><g><path d="M 9.5 -6.34375 C 4.695312 -11.582031 2.296875 -18 2.296875 -25.59375 C 2.296875 -33.195312 4.695312 -39.628906 9.5 -44.890625 C 14.300781 -50.160156 20.398438 -52.796875 27.796875 -52.796875 C 34.597656 -52.796875 40.195312 -50.664062 44.59375 -46.40625 L 44.59375 -51.296875 L 62.296875 -51.296875 L 62.296875 0 L 44.796875 0 L 44.796875 -5.796875 L 44.59375 -5.796875 C 40.195312 -0.929688 34.597656 1.5 27.796875 1.5 C 20.398438 1.5 14.300781 -1.113281 9.5 -6.34375 Z M 24.546875 -34.296875 C 22.242188 -32.035156 21.09375 -29.132812 21.09375 -25.59375 C 21.09375 -22.0625 22.191406 -19.175781 24.390625 -16.9375 C 26.597656 -14.707031 29.5 -13.59375 33.09375 -13.59375 C 36.5625 -13.59375 39.410156 -14.726562 41.640625 -17 C 43.878906 -19.269531 45 -22.132812 45 -25.59375 C 45 -29.132812 43.847656 -32.035156 41.546875 -34.296875 C 39.242188 -36.566406 36.425781 -37.703125 33.09375 -37.703125 C 29.695312 -37.703125 26.847656 -36.566406 24.546875 -34.296875 Z M 24.546875 -34.296875 "/></g></g></g><g fill="#ffffff" fill-opacity="1"><g transform="translate(522.392439, 101.749946)"><g><path d="M 3.703125 12.59375 L 18.203125 5.5 C 20.867188 9.894531 25.5 12.09375 32.09375 12.09375 C 35.164062 12.09375 38.015625 11.109375 40.640625 9.140625 C 43.273438 7.179688 44.59375 4.164062 44.59375 0.09375 L 44.59375 -3.703125 C 41.46875 -0.234375 35.867188 1.5 27.796875 1.5 C 20.398438 1.5 14.300781 -1.113281 9.5 -6.34375 C 4.695312 -11.582031 2.296875 -18 2.296875 -25.59375 C 2.296875 -33.195312 4.695312 -39.628906 9.5 -44.890625 C 14.300781 -50.160156 20.398438 -52.796875 27.796875 -52.796875 C 34.398438 -52.796875 39.898438 -50.765625 44.296875 -46.703125 L 44.59375 -46.703125 L 44.59375 -51.296875 L 62.296875 -51.296875 L 62.296875 1.40625 C 62.296875 9.738281 59.53125 16.171875 54 20.703125 C 48.46875 25.234375 41.164062 27.5 32.09375 27.5 C 17.425781 27.5 7.960938 22.53125 3.703125 12.59375 Z M 24.546875 -34.296875 C 22.242188 -32.035156 21.09375 -29.132812 21.09375 -25.59375 C 21.09375 -22.0625 22.191406 -19.175781 24.390625 -16.9375 C 26.597656 -14.707031 29.5 -13.59375 33.09375 -13.59375 C 36.5625 -13.59375 39.410156 -14.726562 41.640625 -17 C 43.878906 -19.269531 45 -22.132812 45 -25.59375 C 45 -29.132812 43.847656 -32.035156 41.546875 -34.296875 C 39.242188 -36.566406 36.425781 -37.703125 33.09375 -37.703125 C 29.695312 -37.703125 26.847656 -36.566406 24.546875 -34.296875 Z M 24.546875 -34.296875 "/></g></g></g><g fill="#ffffff" fill-opacity="1"><g transform="translate(590.689813, 101.749946)"><g><path d="M 9.5 -6.34375 C 4.695312 -11.582031 2.296875 -18 2.296875 -25.59375 C 2.296875 -33.195312 4.695312 -39.628906 9.5 -44.890625 C 14.300781 -50.160156 20.398438 -52.796875 27.796875 -52.796875 C 34.597656 -52.796875 40.195312 -50.664062 44.59375 -46.40625 L 44.59375 -51.296875 L 62.296875 -51.296875 L 62.296875 0 L 44.796875 0 L 44.796875 -5.796875 L 44.59375 -5.796875 C 40.195312 -0.929688 34.597656 1.5 27.796875 1.5 C 20.398438 1.5 14.300781 -1.113281 9.5 -6.34375 Z M 24.546875 -34.296875 C 22.242188 -32.035156 21.09375 -29.132812 21.09375 -25.59375 C 21.09375 -22.0625 22.191406 -19.175781 24.390625 -16.9375 C 26.597656 -14.707031 29.5 -13.59375 33.09375 -13.59375 C 36.5625 -13.59375 39.410156 -14.726562 41.640625 -17 C 43.878906 -19.269531 45 -22.132812 45 -25.59375 C 45 -29.132812 43.847656 -32.035156 41.546875 -34.296875 C 39.242188 -36.566406 36.425781 -37.703125 33.09375 -37.703125 C 29.695312 -37.703125 26.847656 -36.566406 24.546875 -34.296875 Z M 24.546875 -34.296875 "/></g></g></g><g fill="#ffffff" fill-opacity="1"><g transform="translate(658.987188, 101.749946)"><g><path d="M 6 0 L 6 -51.296875 L 23.703125 -51.296875 L 23.703125 -43.90625 L 23.90625 -43.90625 C 24.03125 -44.164062 24.242188 -44.492188 24.546875 -44.890625 C 24.847656 -45.296875 25.5 -46 26.5 -47 C 27.5 -48 28.566406 -48.898438 29.703125 -49.703125 C 30.835938 -50.503906 32.300781 -51.21875 34.09375 -51.84375 C 35.894531 -52.476562 37.726562 -52.796875 39.59375 -52.796875 C 41.53125 -52.796875 43.429688 -52.53125 45.296875 -52 C 47.160156 -51.46875 48.53125 -50.9375 49.40625 -50.40625 L 50.796875 -49.59375 L 43.40625 -34.59375 C 41.195312 -36.46875 38.128906 -37.40625 34.203125 -37.40625 C 32.066406 -37.40625 30.234375 -36.9375 28.703125 -36 C 27.171875 -35.0625 26.085938 -33.925781 25.453125 -32.59375 C 24.816406 -31.257812 24.363281 -30.125 24.09375 -29.1875 C 23.832031 -28.257812 23.703125 -27.53125 23.703125 -27 L 23.703125 0 Z M 6 0 "/></g></g></g></svg>