<svg viewBox="0 0 15000 16000" height="1600" width="1500" style="transform: none; transform-origin: 50% 50%; cursor: move;" xmlns="http://www.w3.org/2000/svg" id="outputsvg" class="img-fluid">
  <g style="transform: none;" fill="rgb(255,255,255)" id="l4vZS5iQEFYGim8aZrx5VWS">
    <g> <path d="M7468 11427 c-16 -6 -28 -14 -28 -19 0 -4 -5 -8 -11 -8 -13 0 -133 -72 -137 -82 -2 -5 -12 -8 -22 -8 -9 0 -23 -7 -30 -15 -7 -8 -16 -15 -20 -15 -5 0 -54 -27 -110 -60 -56 -33 -104 -60 -107 -60 -3 0 -25 -13 -50 -30 -24 -16 -48 -30 -53 -30 -5 0 -15 -6 -22 -13 -7 -7 -24 -18 -38 -24 -39 -19 -132 -73 -158 -92 l-24 -17 0 -579 c0 -467 -2 -585 -13 -605 -8 -14 -21 -47 -31 -75 -9 -27 -22 -63 -29 -80 -7 -16 -20 -52 -30 -80 -9 -27 -21 -58 -26 -67 -5 -10 -9 -23 -9 -30 0 -7 -7 -26 -16 -43 -9 -16 -25 -57 -36 -90 -10 -33 -23 -69 -28 -80 -37 -86 -50 -119 -50 -130 0 -7 -7 -26 -15 -41 -8 -16 -15 -37 -15 -46 0 -9 -4 -19 -9 -22 -4 -3 -18 -36 -30 -73 -12 -37 -26 -77 -31 -88 -37 -84 -50 -120 -50 -134 0 -9 -4 -21 -8 -27 -8 -9 -37 -82 -67 -169 -9 -27 -23 -63 -30 -80 -7 -16 -20 -52 -30 -80 -10 -27 -24 -64 -31 -82 -8 -17 -14 -38 -14 -46 0 -9 -4 -18 -9 -21 -4 -3 -18 -36 -30 -73 -12 -37 -26 -77 -31 -88 -35 -80 -50 -119 -50 -130 0 -7 -7 -26 -15 -41 -8 -16 -15 -36 -15 -44 0 -9 -4 -20 -9 -25 -12 -13 -51 -124 -51 -147 0 -10 -5 -18 -11 -18 -5 0 -8 -4 -5 -9 7 -10 -32 -106 -39 -99 -3 3 -5 399 -5 882 0 863 0 876 -19 876 -11 0 -40 -13 -64 -30 -25 -16 -47 -30 -50 -30 -3 0 -52 -27 -109 -61 -57 -34 -132 -77 -168 -97 -36 -19 -67 -38 -70 -41 -3 -3 -23 -15 -45 -26 -22 -11 -58 -31 -80 -45 -22 -14 -49 -30 -60 -36 -20 -11 -20 -22 -20 -1404 l0 -1393 30 -19 c17 -10 39 -23 50 -28 69 -37 125 -69 162 -93 24 -15 45 -27 47 -27 3 0 61 -34 129 -75 69 -41 127 -75 131 -75 3 0 28 -13 54 -30 62 -38 75 -38 95 3 26 53 47 104 47 114 0 5 14 37 30 71 17 34 30 69 30 77 0 7 4 16 9 19 5 3 12 18 16 33 3 16 17 51 30 78 13 28 27 64 31 80 4 17 10 32 13 35 3 3 17 32 29 65 28 71 34 85 60 145 10 25 27 65 37 90 25 64 45 110 61 144 8 16 14 37 14 48 0 10 5 18 10 18 6 0 10 8 10 17 0 9 8 35 19 57 40 89 51 114 51 123 0 5 11 33 25 61 14 29 25 55 25 59 1 5 9 26 20 48 11 22 19 45 20 52 0 6 6 24 14 40 23 45 46 100 46 111 0 6 6 23 14 39 41 81 136 317 136 336 0 9 4 17 9 17 5 0 12 12 15 26 4 15 13 32 20 39 11 11 13 -220 14 -1288 1 -716 1 -1305 2 -1309 0 -4 10 -10 23 -14 12 -4 40 -19 62 -33 22 -15 58 -36 80 -46 22 -11 42 -23 45 -26 3 -3 25 -16 50 -30 25 -13 47 -26 50 -30 3 -3 23 -14 45 -26 81 -42 110 -58 115 -64 3 -4 37 -24 75 -44 39 -21 77 -44 86 -51 8 -8 23 -14 32 -14 16 0 17 142 17 2113 0 1161 0 2450 0 2862 l0 750 80 42 c72 39 82 42 107 31 16 -7 30 -16 33 -20 3 -4 17 -12 30 -18 14 -5 39 -19 55 -30 17 -10 50 -29 75 -42 25 -13 47 -25 50 -28 5 -5 24 -16 105 -62 28 -16 57 -33 65 -38 56 -35 173 -100 181 -100 5 0 9 -4 9 -9 0 -5 13 -12 29 -16 16 -3 32 -13 35 -21 3 -8 10 -14 16 -14 5 0 38 -17 72 -38 35 -21 88 -51 118 -66 30 -16 57 -31 60 -35 3 -3 23 -15 45 -26 22 -11 46 -26 53 -32 7 -7 19 -13 26 -13 8 0 19 -6 25 -14 7 -8 31 -24 54 -35 23 -12 49 -25 57 -31 63 -40 171 -100 179 -100 6 0 11 -4 11 -8 0 -4 12 -13 28 -20 15 -6 68 -36 117 -66 50 -30 94 -55 98 -55 5 -1 27 -14 50 -29 23 -15 60 -37 82 -47 22 -11 42 -22 45 -25 8 -9 126 -78 210 -122 25 -13 64 -36 87 -51 24 -15 45 -27 49 -27 3 0 29 -15 57 -33 65 -42 194 -117 201 -117 3 0 24 -13 48 -28 24 -15 61 -37 83 -47 22 -11 44 -24 50 -28 5 -4 31 -21 58 -37 l47 -30 1 -1165 c1 -641 1 -1232 1 -1315 0 -82 0 -265 -1 -405 l-1 -255 -46 -28 c-26 -15 -52 -32 -59 -39 -7 -7 -24 -15 -39 -19 -14 -3 -26 -10 -26 -14 0 -4 -8 -10 -17 -14 -10 -3 -31 -15 -48 -26 -16 -11 -39 -24 -51 -29 -11 -5 -51 -28 -88 -50 -36 -23 -68 -41 -71 -41 -2 0 -24 -13 -48 -30 -25 -16 -48 -30 -51 -30 -3 0 -55 -29 -115 -65 -60 -36 -112 -65 -114 -65 -2 0 -46 -25 -96 -55 -51 -30 -94 -55 -96 -55 -2 0 -24 -13 -48 -30 -25 -16 -48 -30 -52 -30 -4 0 -41 -20 -82 -45 -40 -25 -76 -45 -78 -45 -2 0 -24 -13 -48 -30 -25 -16 -48 -30 -52 -30 -4 0 -41 -20 -82 -45 -40 -25 -77 -45 -81 -45 -4 -1 -17 -9 -30 -20 l-23 -19 0 -385 c-1 -212 2 -390 6 -395 4 -7 20 -2 43 12 20 13 44 27 52 30 8 4 29 16 45 27 17 11 41 25 55 32 14 7 27 15 30 18 6 6 53 32 147 80 40 20 70 39 67 42 -3 3 7 9 23 12 15 4 63 31 108 59 101 65 109 70 170 103 28 15 52 29 55 33 3 3 23 15 45 26 22 10 58 31 80 45 72 45 80 50 110 65 39 19 99 54 152 88 24 15 45 27 47 27 6 0 129 72 136 80 3 3 25 15 50 28 25 12 52 27 60 32 46 29 294 173 345 200 90 49 97 53 142 83 24 15 46 27 50 27 5 0 32 16 60 35 29 19 57 35 63 35 5 0 10 4 10 9 0 5 10 11 23 15 12 3 32 14 44 25 l22 21 1 1959 0 1960 -22 21 c-12 11 -33 23 -45 26 -13 4 -23 10 -23 15 0 5 -4 9 -10 9 -5 0 -34 16 -64 35 -30 19 -58 35 -61 35 -4 0 -19 9 -33 19 -37 26 -131 80 -164 94 -16 6 -28 15 -28 19 0 4 -6 8 -13 8 -7 0 -35 15 -62 33 -28 17 -79 47 -115 66 -36 19 -72 39 -80 46 -8 7 -37 23 -65 35 -27 13 -58 32 -68 41 -11 10 -31 20 -45 24 -14 3 -31 13 -36 20 -6 8 -38 28 -72 44 -33 16 -66 37 -74 45 -7 9 -20 16 -29 16 -9 0 -34 14 -55 30 -22 17 -46 30 -53 30 -7 0 -13 5 -13 10 0 6 -6 10 -13 10 -7 0 -29 12 -48 26 -35 26 -130 74 -147 74 -6 0 -12 6 -15 13 -2 7 -24 22 -48 35 -55 28 -79 44 -97 60 -7 6 -20 12 -29 12 -9 0 -41 17 -72 39 -31 21 -68 42 -81 46 -14 4 -27 11 -30 15 -3 4 -41 26 -85 50 -44 23 -94 53 -112 66 -17 13 -35 24 -38 24 -4 0 -27 14 -52 30 -24 17 -50 30 -57 30 -7 0 -24 10 -37 21 -13 12 -51 34 -83 50 -33 15 -62 32 -65 36 -8 10 -34 26 -91 55 -25 13 -46 26 -48 30 -2 4 -24 17 -50 30 -26 12 -66 35 -89 50 -23 15 -44 28 -47 28 -3 0 -39 20 -79 45 -41 25 -77 45 -80 45 -3 0 -25 13 -49 28 -24 15 -61 37 -83 47 -22 11 -42 22 -45 25 -7 8 -131 80 -205 121 -33 17 -71 40 -85 49 -27 18 -128 71 -132 69 -2 -1 -15 -6 -30 -12z" id="pGge1YgyU"></path>
      <path d="M6296 10752 c-2 -4 -24 -18 -48 -30 -24 -13 -56 -32 -73 -42 -16 -11 -41 -25 -55 -32 -14 -7 -65 -36 -113 -65 -48 -29 -92 -53 -98 -53 -6 0 -22 -9 -36 -20 -14 -11 -31 -20 -39 -20 -7 0 -14 -3 -16 -7 -1 -5 -21 -17 -42 -28 -22 -11 -45 -24 -51 -30 -17 -15 -47 -34 -75 -46 -13 -5 -27 -13 -30 -17 -3 -4 -26 -19 -52 -32 -27 -14 -48 -28 -48 -32 0 -5 -5 -8 -11 -8 -7 0 -49 -22 -95 -50 -46 -27 -88 -50 -94 -50 -5 0 -10 -4 -10 -8 0 -4 -12 -13 -27 -19 -16 -7 -50 -26 -78 -43 -27 -16 -62 -36 -77 -42 -16 -7 -28 -16 -28 -20 0 -4 -5 -8 -11 -8 -6 0 -48 -22 -93 -49 -116 -70 -146 -87 -194 -111 -23 -12 -48 -27 -55 -34 -7 -6 -30 -20 -52 -31 -22 -11 -42 -22 -45 -25 -6 -6 -41 -26 -85 -49 -16 -9 -32 -18 -35 -21 -4 -4 -31 -19 -111 -63 -13 -7 -43 -25 -66 -40 -24 -15 -45 -27 -49 -27 -3 0 -29 -16 -58 -35 -29 -19 -56 -35 -59 -35 -4 0 -29 -14 -57 -31 l-50 -31 3 -1970 2 -1970 39 -22 c22 -11 46 -27 54 -33 7 -7 18 -13 24 -13 6 0 19 -6 27 -14 9 -7 39 -26 66 -41 47 -26 100 -56 329 -190 52 -30 99 -55 104 -55 6 0 12 -4 14 -8 3 -8 47 -33 168 -98 19 -11 40 -25 48 -31 7 -7 17 -13 22 -13 5 0 29 -13 53 -30 25 -16 47 -30 50 -30 4 0 51 -27 105 -60 55 -33 105 -60 111 -60 6 0 11 -4 11 -8 0 -4 12 -13 28 -19 30 -14 59 -32 80 -50 7 -7 17 -13 22 -13 4 0 46 -22 93 -50 47 -27 88 -50 93 -50 4 0 22 -11 40 -25 18 -14 39 -25 47 -25 9 0 17 -3 19 -7 4 -11 124 -83 137 -83 6 0 11 -4 11 -9 0 -5 12 -14 28 -20 15 -6 50 -25 77 -42 28 -16 64 -37 80 -45 33 -16 48 -25 112 -66 23 -16 44 -28 46 -28 3 0 40 -20 81 -45 42 -25 81 -45 86 -45 6 0 10 -4 10 -8 0 -4 12 -13 28 -19 33 -14 135 -73 142 -82 3 -3 23 -15 45 -26 22 -10 59 -32 82 -47 23 -15 44 -28 47 -28 4 0 126 -70 176 -101 8 -5 26 -15 40 -21 14 -7 27 -15 30 -18 3 -3 23 -14 45 -25 22 -11 42 -23 45 -26 3 -3 25 -16 50 -30 25 -13 51 -30 58 -36 7 -7 20 -13 28 -13 8 0 14 -3 14 -7 0 -5 27 -21 60 -37 33 -16 60 -32 60 -35 0 -3 19 -15 43 -26 23 -11 44 -22 47 -25 3 -3 18 -11 33 -18 32 -14 38 -11 182 73 39 23 77 45 85 49 8 4 24 12 35 19 11 7 47 27 80 46 33 19 62 37 65 40 3 3 25 16 50 29 25 13 59 32 75 42 17 11 37 23 45 26 8 4 48 27 87 51 40 23 75 43 79 43 3 0 25 14 49 30 l44 30 -1 581 c0 319 1 581 3 583 13 9 110 66 114 66 2 0 24 14 48 30 25 17 47 30 50 30 3 0 40 20 81 45 42 25 79 45 83 45 4 0 14 6 22 14 9 7 48 31 86 51 39 21 72 41 75 44 3 3 23 15 45 26 22 10 47 24 55 31 8 6 47 28 85 49 39 20 72 40 75 44 3 3 23 15 45 26 22 11 54 29 71 41 17 11 57 33 88 49 31 15 56 32 56 37 0 4 5 8 11 8 7 0 33 13 59 29 26 16 78 46 116 67 38 20 71 40 74 43 3 3 23 15 45 26 22 11 58 31 80 45 22 14 49 30 60 36 20 11 20 23 23 878 l2 866 -327 1 c-181 0 -524 0 -764 -1 -240 0 -442 2 -450 5 -12 4 -14 146 -11 966 3 892 2 963 -14 980 -9 11 -21 19 -27 19 -5 0 -28 12 -51 28 -22 15 -59 36 -81 47 -22 11 -42 23 -45 26 -3 3 -32 21 -65 40 -33 19 -69 39 -80 46 -11 7 -27 15 -35 19 -8 4 -47 27 -87 51 -39 24 -76 43 -82 43 -6 0 -11 5 -11 10 0 6 -6 10 -14 10 -7 0 -25 9 -40 21 -61 48 -56 276 -56 -2849 l0 -2858 -47 -24 c-27 -13 -50 -26 -53 -29 -3 -4 -18 -12 -33 -19 -25 -11 -35 -8 -95 24 -37 20 -78 44 -92 53 -14 9 -43 26 -65 36 -22 11 -41 23 -43 28 -2 4 -7 7 -12 7 -5 0 -30 13 -57 29 -143 86 -274 161 -283 161 -6 0 -10 4 -10 8 0 4 -12 13 -27 20 -16 6 -41 20 -58 30 -58 36 -230 135 -280 161 -27 14 -52 28 -55 31 -6 7 -97 61 -130 77 -14 7 -32 17 -40 23 -41 27 -168 100 -175 100 -4 0 -27 14 -52 30 -24 17 -46 30 -48 30 -2 0 -38 20 -78 45 -41 25 -77 45 -80 45 -3 0 -25 13 -49 28 -24 15 -61 37 -83 47 -22 11 -42 23 -45 26 -3 3 -25 16 -50 30 -25 13 -47 26 -50 29 -3 3 -16 11 -30 18 -14 6 -32 16 -40 22 -44 28 -173 100 -181 100 -5 0 -9 4 -9 8 0 4 -12 13 -27 19 -16 7 -35 17 -43 22 -32 22 -154 93 -174 102 -12 5 -34 18 -51 29 -16 11 -38 23 -47 26 -10 4 -18 10 -18 14 0 4 -12 11 -26 14 -15 4 -32 12 -39 19 -7 7 -33 24 -59 39 l-46 28 -1 1167 c-2 1266 -2 1217 0 1666 l1 307 46 28 c26 15 51 32 58 37 6 6 31 20 56 33 25 13 59 32 75 42 17 10 53 31 80 46 109 60 115 63 182 107 24 15 45 27 48 27 4 0 146 81 175 100 8 6 22 13 30 17 18 7 133 76 140 83 3 3 23 14 45 25 22 10 59 32 82 47 23 15 46 28 52 28 5 0 16 6 23 13 7 7 24 18 38 24 14 7 48 26 75 43 28 17 62 36 78 42 15 7 27 16 27 20 0 4 4 8 10 8 5 0 44 20 86 45 41 25 79 45 82 45 4 1 17 9 30 20 l23 19 -1 383 c0 211 0 389 0 396 0 13 -16 16 -24 4z m2889 -3598 l25 -6 0 -318 0 -317 -45 -24 c-25 -13 -45 -27 -45 -31 0 -5 -5 -8 -11 -8 -6 0 -44 -19 -83 -43 -39 -24 -78 -46 -86 -50 -8 -4 -28 -16 -45 -26 -16 -11 -52 -32 -80 -47 -27 -14 -52 -29 -55 -33 -3 -3 -23 -15 -45 -26 -22 -10 -59 -32 -83 -47 -24 -15 -47 -28 -52 -28 -5 0 -15 -6 -22 -12 -7 -7 -31 -23 -53 -35 -83 -44 -120 -65 -132 -75 -7 -6 -14 -5 -19 3 -4 7 -6 260 -5 563 1 415 4 552 13 557 15 9 788 12 823 3z" id="poY6RQ8He"></path>
    </g>
  </g>
</svg>
